<?xml version="1.0" standalone="no"?>
<!DOCTYPE svg PUBLIC "-//W3C//DTD SVG 20010904//EN"
 "http://www.w3.org/TR/2001/REC-SVG-20010904/DTD/svg10.dtd">
<svg version="1.0" xmlns="http://www.w3.org/2000/svg"
 width="200.000000pt" height="200.000000pt" viewBox="0 0 200.000000 200.000000"
 preserveAspectRatio="xMidYMid meet">

<g transform="translate(0.000000,200.000000) scale(0.100000,-0.100000)"
fill="#000000" stroke="none">
<path d="M935 1640 l-100 -100 103 -103 102 -102 0 62 0 61 53 -12 c85 -20
148 -55 212 -120 71 -72 110 -147 127 -245 40 -232 -117 -460 -350 -510 -34
-7 -191 -11 -447 -11 l-395 0 0 -100 0 -100 408 0 c463 0 495 4 632 71 119 59
230 170 289 289 94 193 94 387 0 580 -33 67 -59 102 -123 165 -108 108 -219
165 -368 190 -35 5 -37 8 -40 46 l-3 40 -100 -101z"/>
<path d="M800 1631 c-164 -52 -315 -181 -389 -331 -106 -217 -92 -446 41 -652
l30 -48 156 0 157 0 -51 34 c-230 155 -272 471 -89 674 49 54 118 102 178 123
20 7 37 16 37 19 0 3 -18 24 -40 45 -22 21 -40 43 -40 47 0 5 21 31 46 58 51
54 47 58 -36 31z"/>
<path d="M1660 612 l0 -52 -71 0 -71 0 -64 -59 c-36 -33 -100 -77 -142 -100
l-77 -40 213 -1 212 0 0 -52 0 -53 102 103 103 102 -103 102 -102 103 0 -53z"/>
</g>
</svg>
