<?xml version="1.0" standalone="no"?>
<!DOCTYPE svg PUBLIC "-//W3C//DTD SVG 20010904//EN"
 "http://www.w3.org/TR/2001/REC-SVG-20010904/DTD/svg10.dtd">
<svg version="1.0" xmlns="http://www.w3.org/2000/svg"
 width="256.000000pt" height="256.000000pt" viewBox="0 0 256.000000 256.000000"
 preserveAspectRatio="xMidYMid meet">

<g transform="translate(0.000000,256.000000) scale(0.100000,-0.100000)"
fill="#000000" stroke="none">
<path d="M105 2546 c-37 -17 -80 -62 -94 -99 -8 -19 -11 -317 -11 -928 0 -863
1 -901 19 -937 23 -46 46 -67 94 -87 30 -12 93 -15 372 -15 213 0 343 4 356
10 21 12 25 50 7 68 -9 9 -103 12 -360 12 l-349 0 -24 25 -25 24 0 431 0 430
183 0 184 0 24 26 c32 35 31 87 -4 138 -15 21 -27 52 -27 68 0 96 102 142 172
79 44 -39 46 -99 5 -152 -32 -43 -34 -82 -7 -127 l20 -33 102 3 c83 3 103 6
112 20 8 13 8 23 0 35 -9 14 -28 19 -88 21 -42 2 -76 4 -76 6 0 2 12 25 26 51
70 124 -4 277 -140 292 -149 17 -259 -136 -197 -273 10 -23 24 -45 30 -48 30
-19 -14 -26 -160 -26 l-159 0 0 430 0 431 25 24 24 25 431 0 430 0 0 -179 c0
-175 1 -181 24 -207 31 -37 80 -38 133 -1 84 58 173 17 173 -78 0 -38 -5 -52
-29 -76 -36 -36 -94 -40 -134 -9 -61 48 -119 46 -153 -4 -14 -23 -16 -65 -15
-386 1 -198 -1 -360 -4 -360 -4 0 -20 9 -35 20 -45 32 -121 46 -172 31 -146
-43 -180 -252 -55 -342 67 -48 153 -50 221 -4 19 13 37 21 40 17 3 -3 6 -92 6
-198 0 -181 1 -194 19 -204 12 -6 96 -10 205 -10 178 0 186 -1 186 -20 0 -71
99 -241 182 -314 101 -88 253 -146 382 -146 336 1 609 294 583 625 -12 152
-92 309 -205 402 -65 52 -174 108 -233 118 l-39 7 0 79 c0 66 -3 82 -20 99
-22 22 -29 24 -50 10 -11 -6 -16 -33 -20 -92 l-5 -83 -71 -7 c-262 -26 -490
-257 -513 -518 l-6 -65 -155 0 -155 0 -3 181 c-2 174 -3 182 -25 202 -39 37
-76 38 -127 3 -63 -43 -111 -42 -156 3 -38 38 -42 67 -20 120 9 23 24 37 46
45 50 17 73 14 121 -19 24 -16 54 -30 67 -30 18 0 75 22 84 33 1 1 4 83 7 182
l6 180 148 3 c81 1 147 1 147 -2 0 -2 -11 -24 -25 -47 -32 -56 -33 -126 -4
-186 81 -167 327 -129 363 56 7 40 -9 105 -35 142 -10 15 -19 30 -19 33 0 3
90 6 200 6 199 0 200 0 205 23 3 12 4 231 3 487 l-3 465 -24 34 c-13 18 -42
42 -65 52 -39 18 -84 19 -941 18 -730 0 -906 -2 -930 -13z m1856 -102 l24 -26
0 -426 0 -427 -181 -3 c-181 -2 -182 -3 -208 -29 -35 -35 -34 -76 4 -132 35
-51 37 -84 11 -127 -26 -43 -71 -60 -120 -45 -75 22 -97 104 -48 175 58 84 21
154 -82 158 -31 1 -67 3 -81 4 -14 1 -64 2 -112 3 l-88 1 0 145 c0 94 4 145
10 145 6 0 25 -10 41 -22 25 -19 44 -23 98 -23 58 0 73 4 104 27 57 44 81 85
85 147 10 155 -146 259 -281 187 -26 -14 -50 -26 -53 -26 -2 0 -4 72 -4 160
l0 160 428 0 429 0 24 -26z m171 -1394 c195 -61 338 -257 338 -465 0 -140 -46
-251 -145 -350 -99 -99 -210 -145 -350 -145 -134 0 -257 54 -355 156 -229 238
-158 631 140 777 120 59 241 68 372 27z"/>
<path d="M2003 763 c-4 -10 -37 -98 -75 -197 -37 -98 -68 -180 -68 -182 0 -2
22 -4 48 -4 l48 0 58 153 c32 83 67 173 77 200 l19 47 -50 0 c-39 0 -52 -4
-57 -17z"/>
<path d="M1688 659 c-135 -68 -138 -70 -138 -102 0 -32 3 -35 129 -100 70 -37
134 -67 140 -67 8 0 11 16 9 48 l-3 47 -69 36 -70 37 72 36 72 36 0 50 c0 28
-1 50 -2 49 -2 0 -65 -31 -140 -70z"/>
<path d="M2130 678 l0 -54 71 -35 70 -35 -70 -34 -71 -34 0 -48 c0 -26 3 -48
8 -48 4 1 66 31 137 68 120 62 130 69 133 98 3 29 0 32 -138 103 l-140 72 0
-53z"/>
</g>
</svg>
