<?xml version="1.0" standalone="no"?>
<!DOCTYPE svg PUBLIC "-//W3C//DTD SVG 20010904//EN"
 "http://www.w3.org/TR/2001/REC-SVG-20010904/DTD/svg10.dtd">
<svg version="1.0" xmlns="http://www.w3.org/2000/svg"
 width="200.000000pt" height="200.000000pt" viewBox="0 0 200.000000 200.000000"
 preserveAspectRatio="xMidYMid meet">

<g transform="translate(0.000000,200.000000) scale(0.100000,-0.100000)"
fill="#000000" stroke="none">
<path d="M925 1911 c-119 -31 -210 -129 -230 -248 -6 -39 -11 -45 -68 -77
-162 -91 -286 -241 -350 -423 -24 -70 -31 -110 -35 -195 l-5 -108 -43 -25
c-158 -93 -184 -327 -52 -462 85 -86 225 -114 332 -65 l49 22 53 -36 c253
-167 591 -164 841 7 l41 29 49 -22 c72 -33 181 -31 249 5 64 33 108 76 139
136 67 132 24 299 -97 376 l-47 30 -1 60 c-4 284 -170 558 -411 681 -43 21
-47 26 -53 71 -12 93 -83 185 -173 225 -47 21 -144 31 -188 19z m184 -108 c32
-20 54 -44 74 -83 100 -191 -95 -390 -289 -295 -137 67 -163 237 -54 345 75
76 179 88 269 33z m-391 -306 c18 -50 73 -109 132 -141 69 -37 165 -46 238
-22 64 22 143 91 172 151 12 25 25 45 28 45 25 0 128 -75 189 -137 57 -58 82
-93 117 -166 50 -105 64 -157 73 -268 l6 -79 -50 0 c-80 0 -141 -27 -204 -89
-71 -71 -94 -133 -87 -232 4 -51 13 -81 36 -123 l32 -55 -62 -36 c-193 -113
-436 -125 -633 -32 -38 19 -80 43 -93 53 l-23 19 28 55 c25 48 28 65 28 145 0
108 -18 149 -95 218 -56 50 -121 77 -188 77 l-45 0 6 98 c8 160 68 298 179
414 53 54 169 138 193 138 6 0 16 -15 23 -33z m-273 -716 c49 -22 99 -77 115
-126 19 -58 9 -146 -23 -194 -90 -136 -304 -126 -377 19 -41 83 -31 171 28
240 65 76 170 101 257 61z m1284 -7 c134 -67 159 -237 51 -344 -107 -108 -277
-83 -344 51 -97 196 97 390 293 293z"/>
</g>
</svg>
