<?xml version="1.0" encoding="UTF-8" standalone="no"?>
<!-- Created with Inkscape (http://www.inkscape.org/) -->

<svg
   xmlns:dc="http://purl.org/dc/elements/1.1/"
   xmlns:cc="http://creativecommons.org/ns#"
   xmlns:rdf="http://www.w3.org/1999/02/22-rdf-syntax-ns#"
   xmlns:svg="http://www.w3.org/2000/svg"
   xmlns="http://www.w3.org/2000/svg"
   xmlns:sodipodi="http://sodipodi.sourceforge.net/DTD/sodipodi-0.dtd"
   xmlns:inkscape="http://www.inkscape.org/namespaces/inkscape"
   width="39.396725mm"
   height="33.626118mm"
   viewBox="0 0 139.59469 119.14766"
   id="svg2"
   version="1.1"
   inkscape:version="0.91 r13725"
   sodipodi:docname="Icon-Megaphone.svg"
   inkscape:export-filename="/home/birgit/Dokumente/Brahma neu/Schule/moodle-Beratung/Lösung-Icon.png"
   inkscape:export-xdpi="30.171288"
   inkscape:export-ydpi="30.171288">
  <defs
     id="defs4" />
  <sodipodi:namedview
     id="base"
     pagecolor="#ffffff"
     bordercolor="#666666"
     borderopacity="1.0"
     inkscape:pageopacity="0.0"
     inkscape:pageshadow="2"
     inkscape:zoom="0.26256681"
     inkscape:cx="-759.37898"
     inkscape:cy="685.17329"
     inkscape:document-units="px"
     inkscape:current-layer="layer1"
     showgrid="false"
     inkscape:window-width="1366"
     inkscape:window-height="687"
     inkscape:window-x="341"
     inkscape:window-y="1152"
     inkscape:window-maximized="1"
     showguides="true"
     inkscape:guide-bbox="true"
     fit-margin-top="0"
     fit-margin-left="0"
     fit-margin-right="0"
     fit-margin-bottom="0">
    <sodipodi:guide
       position="-1973.2958,-105.76476"
       orientation="0,1"
       id="guide4285" />
  </sodipodi:namedview>
  <metadata
     id="metadata7">
    <rdf:RDF>
      <cc:Work
         rdf:about="">
        <dc:format>image/svg+xml</dc:format>
        <dc:type
           rdf:resource="http://purl.org/dc/dcmitype/StillImage" />
        <dc:title></dc:title>
      </cc:Work>
    </rdf:RDF>
  </metadata>
  <g
     inkscape:label="Ebene 1"
     inkscape:groupmode="layer"
     id="layer1"
     transform="translate(817.76941,-587.79502)">
    <path
       style="fill:#000000"
       d="m -774.61918,706.43383 c -0.39398,-0.27987 -1.37213,-1.48383 -2.17374,-2.67548 -1.47635,-2.19474 -4.9819,-7.32942 -8.70439,-12.74959 -4.61727,-6.72313 -6.15678,-9.07618 -6.0245,-9.2084 0.1425,-0.14254 6.56238,-1.77818 16.59054,-4.2269 3.71881,-0.90808 5.83832,-1.31947 6.25683,-1.21444 0.97718,0.24526 2.63537,1.92624 3.20401,3.24805 0.28198,0.65551 0.62843,2.07105 0.76995,3.14565 0.55211,4.19257 1.36199,5.59907 3.98149,6.9148 2.84905,1.431 5.28106,3.06002 6.4881,4.34587 1.06004,1.12927 2.12695,3.6892 2.16197,5.18762 0.036,1.53417 -0.4591,2.39427 -1.74689,3.0351 -1.25621,0.6251 -17.70907,4.70657 -18.97272,4.70657 -0.75695,0 -1.34415,-0.16323 -1.83065,-0.50885 z m 63.5073,-27.77783 c -11.74101,-6.07936 -33.96191,-15.56405 -50.22843,-13.06101 l -1.71317,0.36518 -0.21989,-0.97197 c -0.12099,-0.53459 -0.76284,-3.11235 -1.42628,-5.72836 -3.50007,-13.80046 -8.62209,-34.66196 -8.53252,-34.75161 0.0565,-0.0565 1.00041,-0.35382 2.09758,-0.66067 15.63489,-5.99795 27.22841,-19.91448 35.14418,-31.59504 2.59046,-3.84092 3.36345,-4.4575 5.5884,-4.4575 1.94461,0 3.13292,0.73896 4.01552,2.49711 0.35225,0.70181 2.31298,8.2743 5.17242,19.97685 0.799,3.27002 1.61549,6.19653 1.81437,6.50335 0.19895,0.30683 0.68692,0.73491 1.08441,0.95129 3.68813,2.00758 6.51477,4.55541 8.22885,7.41716 1.47168,2.45699 2.17088,4.51331 2.48381,7.30473 0.51199,4.5671 -0.42737,8.60615 -2.91935,12.55248 -0.84611,1.33993 -1.18414,2.11632 -1.18348,2.71786 4.9e-4,0.46315 1.39184,6.39427 3.0917,13.18027 1.78095,7.10969 3.08845,12.80373 3.08544,13.43681 -0.006,1.22634 -0.62319,2.77386 -1.37235,3.44 -1.01808,0.90524 -2.69199,1.25627 -4.21121,0.88307 z m -6.15171,-13.98577 c -0.0655,-0.2289 -1.73125,-6.94433 -3.70147,-14.92318 -1.97012,-7.97885 -3.68977,-14.88157 -3.82131,-15.33938 -0.13155,-0.4578 -1.89772,-7.51214 -3.9248,-15.67631 -2.02714,-8.16417 -3.7391,-14.89745 -3.80454,-14.96282 -0.0655,-0.0654 -0.15412,-0.0743 -0.19731,-0.0198 -9.94546,11.64141 -19.20219,20.53126 -30.54718,26.96676 -0.0907,0.0803 5.90294,24.19103 6.10557,24.56123 12.78673,0.96788 27.53886,4.64245 37.48129,8.93165 2.21702,0.96856 2.57475,1.03713 2.40975,0.46184 z m -76.71698,7.84805 c -0.13677,-0.4905 -0.68373,-2.65764 -1.21546,-4.81585 -1.71244,-6.95042 -8.57832,-34.58892 -8.69932,-35.01876 -0.1771,-0.62935 -1.43609,-0.27444 18.99015,-5.35319 1.92392,-0.47836 3.56477,-0.80296 3.64641,-0.72132 0.15085,0.15084 10.33216,40.76577 10.3342,41.22464 0,0.22331 -4.75153,1.47874 -13.9114,3.67489 -1.70041,0.40769 -4.15091,1.00228 -5.44556,1.32132 -3.22111,0.7938 -3.39478,0.77917 -3.69902,-0.31173 z m -9.99985,-1.64966 c -2.88725,-0.47839 -5.7997,-2.03662 -8.10851,-4.33827 -5.67029,-5.65278 -7.36572,-15.39165 -3.85371,-22.13659 1.17384,-2.25437 4.70171,-5.91051 5.21136,-5.40085 0.14978,0.14979 7.93786,31.2877 7.93908,31.74172 0,0.3001 -0.11019,0.31262 -1.18822,0.13399 z m 119.14764,-16.3295 c -0.80336,-0.3131 -8.65181,-3.65281 -10.10734,-4.30092 -0.3924,-0.17473 -1.89067,-0.81715 -3.32948,-1.4276 -4.37295,-1.85536 -4.64239,-2.07428 -4.81935,-3.91588 -0.15282,-1.59043 0.51071,-2.69059 1.95552,-3.24236 1.29091,-0.49301 1.16896,-0.52988 8.09587,2.44704 2.87762,1.23669 6.08819,2.60238 7.13459,3.03487 4.90709,2.02816 5.27468,2.3013 5.51574,4.09859 0.15218,1.13452 -0.39096,2.5016 -1.20607,3.03568 -0.82843,0.5428 -2.23875,0.6606 -3.23948,0.27058 z m -15.49599,-23.82338 c -0.85369,-0.46367 -1.62723,-1.77528 -1.62615,-2.75726 8.3e-4,-0.92854 0.68345,-2.16719 1.47414,-2.67574 0.30055,-0.19331 4.75719,-1.39626 9.90366,-2.67321 9.13655,-2.267 9.38034,-2.3137 10.3374,-1.98021 1.25271,0.43651 2.06622,1.59208 2.065,2.93328 -8.3e-4,1.08703 -0.65371,2.34587 -1.43244,2.76263 -0.77677,0.41572 -18.44991,4.75428 -19.32243,4.74344 -0.42181,-0.005 -1.05144,-0.16405 -1.39918,-0.35293 z m -8.03126,-13.13417 c -1.18878,-0.60619 -1.76094,-1.50914 -1.76094,-2.77922 0,-1.26524 -0.30333,-0.78664 8.05979,-12.71546 1.76595,-2.51888 3.37353,-4.56291 3.78684,-4.81497 2.07112,-1.26302 4.71969,0.38888 4.68473,2.92185 -0.0133,0.96807 0.26772,0.53043 -7.59534,11.82581 -2.78921,4.00676 -3.81548,5.30142 -4.4356,5.59569 -1.03588,0.49155 -1.72603,0.48306 -2.73948,-0.0337 z"
       id="path4238"
       inkscape:connector-curvature="0"
       sodipodi:nodetypes="ssscsssssssssscccsssccsssssssscsssccsssccccccccscsccsscsssscsssssssssssscssscscsssssssss"
       inkscape:export-xdpi="30.171288"
       inkscape:export-ydpi="30.171288" />
    <path
       style="fill:#000000"
       d=""
       id="path4173"
       inkscape:connector-curvature="0" />
    <g
       id="g4452"
       transform="matrix(0.36160947,0,0,0.36160947,-1405.6123,360.68288)" />
  </g>
</svg>
