<?xml version="1.0" encoding="UTF-8" standalone="no"?>
<svg xmlns="http://www.w3.org/2000/svg" xmlns:xlink="http://www.w3.org/1999/xlink" width="48" height="48" version="1.0">
  <defs>
    <linearGradient id="d">
      <stop offset="0" stop-color="#204a87"/>
      <stop offset="1" stop-color="#204a87" stop-opacity="0"/>
    </linearGradient>
    <linearGradient id="b">
      <stop offset="0" stop-color="#788492"/>
      <stop offset="1" stop-color="#fafafa"/>
    </linearGradient>
    <linearGradient id="a">
      <stop offset="0" stop-color="#fff" stop-opacity=".45038167"/>
      <stop offset="1" stop-color="#fff" stop-opacity=".31297711"/>
    </linearGradient>
    <linearGradient id="c">
      <stop offset="0" stop-color="#729fcf"/>
      <stop offset="1" stop-color="#2b5582"/>
    </linearGradient>
    <linearGradient xlink:href="#a" id="i" x1="29.425014" x2="43.14069" y1="33.593369" y2="38.189564" gradientTransform="matrix(.52677 -.05114 .04765 .43855 5.1133609 13.806931)" gradientUnits="userSpaceOnUse"/>
    <linearGradient xlink:href="#b" id="h" x1="16.920895" x2="14.717065" y1="41.527054" y2="27.556486" gradientTransform="translate(4.9233357 -1.8602252) scale(.8366)" gradientUnits="userSpaceOnUse"/>
    <linearGradient xlink:href="#a" id="g" x1="-5.2845793" x2="33.728188" y1="19.362175" y2="66.499512" gradientTransform="matrix(.77282 0 0 .80595 10.536664 7.348652)" gradientUnits="userSpaceOnUse"/>
    <linearGradient xlink:href="#c" id="e" x1="32.169682" x2="36.310467" y1="32.340691" y2="37.614323" gradientTransform="matrix(.7901 .1057 -.10927 .84638 11.919591 -.3069913)" gradientUnits="userSpaceOnUse"/>
    <linearGradient xlink:href="#d" id="f" x1="6.147116" x2="36.000059" y1="20.343424" y2="20.343424" gradientUnits="userSpaceOnUse"/>
    <filter id="j" width="1.3239908" height="2.2595597" x="-.16199538" y="-.62977983">
      <feGaussianBlur stdDeviation="2.0642511"/>
    </filter>
  </defs>
  <path fill="url(#e)" fill-rule="evenodd" stroke="#204a87" d="M6.6676246 30.90865c1.4196243.435235 3.3221753-2.075549 4.9329524-2.380438 5.043771-.954689 9.668592-1.730901 12.212303-3.110482 6.739676-3.655276 8.981341 4.721714 9.90382 5.353749 1.429455 1.246711-2.945975 4.657339-2.668663 7.434251.153929 1.541435.770428 2.294271.770428 2.294271 1.207073-3.478729 5.022251-2.051735 4.802578-5.671545 2.896632 1.664138 3.518009-.986368 6.878955-.45828-.474978-.736309-1.088029-1.832978-2.40599-2.407817-1.404805-.53637-3.77944-.461521-4.396152-2.286075-.112589-2.063734-.081903-13.072851-4.975529-16.438437-.714951-1.465971.056583-3.5547637 1.448006-4.9818427 1.258144-1.2903908 2.864238-2.5364867 2.432599-2.7164889-1.225503-.2053927-4.483224.3816682-7.338989 1.9543968-1.489262.8201702-2.800625 1.9994201-3.730072 2.4407536C18.424358 8.7013389 12.31361 12.450218 8.8348943 19.166737c-.74386 1.436206-.6086648 2.966173-1.0356766 4.69255-.3187295 1.288604-1.7316111 3.69454-2.2374735 5.247809-.3095466.950474.6207842 1.492197 1.1058804 1.801554z"/>
  <path fill="url(#f)" fill-rule="evenodd" d="M7.4907331 30.459169c2.1282038-6.164941 6.8741179-7.298679 9.7253799-10.23441 2.805483-2.888599 12.67543-6.058073 18.783478 3.011013.029002.043059-1.287524-7.214902-4.597831-10.09837-1.32539-.484919-5.762314-3.135783-6.663816-2.713079-7.476021-1.3893005-15.8544416 4.733574-16.4660687 13.605575-.1080157 1.566831-1.9906676 3.865838-2.1207878 5.578924-.0726328.956291.8691303.554051 1.3396456.850347z" opacity=".56923077"/>
  <path fill="none" stroke="url(#g)" stroke-width=".79763359" d="M7.7618546 29.756942c4.4901724-3.236533 4.8237844-1.977492 9.1673914-3.200298 3.513114-.989008 5.218886-1.193105 6.89728-2.031254 7.105493-3.548312 9.418587 4.405352 10.559378 5.729455 1.589701 1.531288-.61256 3.404738-1.873527 5.99049-.647632 1.32803-.577187 2.31279-.577187 2.31279 1.102899-1.630382 4.713921-.986192 3.73057-5.49876 3.378514 2.709197 4.053924.45319 5.935422.466742-.597621-.783661-1.252689-.812254-1.896167-.970679-1.313353-.513735-3.02378-.325438-3.881881-2.465119-.105252-1.976631.404579-11.944289-4.749595-16.276987-.885579-1.108315-.745928-2.949839.440505-5.046631.336087-.5939686 3.473471-2.993881 2.248894-2.216707-.770807-.122402-3.582845.937601-6.252689 2.443951-1.392307.785542-1.970822 1.47547-2.839759 1.898175-6.248029-1.142749-11.892431 2.037976-15.17524 8.923461-.5204004 1.091505-.6047193 3.260371-.9716387 4.533244-.3050548 1.058262-1.7801421 3.666652-1.9654299 4.846749-.1486683.946862.45345.99628 1.2036732.561378z"/>
  <path fill="url(#h)" fill-rule="evenodd" d="M14.297362 27.440857c5.380817-.668589 6.182903-1.32873 9.580694-2.892001 5.918488-2.761537 7.994889 1.146656 9.426496 2.809879.144972.195829.42896-2.081168-1.138552-3.08634-6.30256-2.95694 1.482669-1.806285 1.057856-2.892013-.488762-1.249155-5.182785-1.174522-6.113809-.85435-3.346449 1.150823-4.737119 1.847119-6.438093 2.195885-3.132724.595946-3.768539.046184-5.750259 2.518586-1.892934 2.361629-1.164294 2.267445-.624333 2.200354z" opacity=".57865164"/>
  <path fill="#729fcf" fill-rule="evenodd" stroke="#204a87" d="M24.238722 24.729828c2.078446.942009 7.263136 3.943507 5.02691 4.697679-7.684977.534541-6.669859-2.593273-8.674803-2.856225-1.15243-.827065 2.544277-2.166781 3.647893-1.841454z"/>
  <path fill="none" stroke="url(#i)" stroke-linecap="round" stroke-linejoin="round" d="M24.140276 25.747363c1.253685.603332 4.880501 2.446055 4.19943 2.859199-2.183377-.031077-4.383599-.614445-4.667088-.858407-.7527-.64775-1.243975-1.227618-1.72306-1.571518-.118352.019734 1.384585-.655827 2.190718-.429274z"/>
  <path fill="#2e3436" fill-rule="evenodd" d="M18.516129 19.751402c.215402.681776-1.232306.9594-2.215874 1.911278-1.184005 1.145859-2.00827 2.870617-2.585519 2.189182-.753717-2.197417 2.210608-6.437578 4.801393-4.10046z" opacity=".48876403"/>
  <path fill="#eeeeec" fill-rule="evenodd" d="M17.707715 20.479481c.127608.403897-.73004.568367-1.312724 1.132276-.701423.678826-1.189732 1.700603-1.531704 1.296908-.446516-1.301787 1.309602-3.81373 2.844428-2.429184z" opacity=".75280899"/>
  <path fill-rule="evenodd" d="M35.443728 33.636894a15.291184 3.9332814 0 1 1-30.5823684 0 15.291184 3.9332814 0 1 1 30.5823684 0z" color="#000" filter="url(#j)" opacity=".1" overflow="visible" style="marker:none" transform="matrix(1.37334 0 0 .50848 -2.6763013 26.896269)"/>
  <path fill="#555753" fill-rule="evenodd" d="M6.1290423 14.077453a.80869311.80869311 0 1 1-1.6173862 0 .80869311.80869311 0 1 1 1.6173862 0z" color="#000" enable-background="accumulate" opacity=".58846154" overflow="visible" style="marker:none" transform="translate(9.5121244 4.4290862) scale(1.2341)"/>
</svg>