<?xml version="1.0" encoding="iso-8859-1"?>
<!-- Generator: Adobe Illustrator 19.0.0, SVG Export Plug-In . SVG Version: 6.00 Build 0)  -->
<svg version="1.1" id="Layer_1" xmlns="http://www.w3.org/2000/svg" xmlns:xlink="http://www.w3.org/1999/xlink" x="0px" y="0px"
	 viewBox="0 0 512 512" style="enable-background:new 0 0 512 512;" xml:space="preserve">
<g>
	<g>
		<g>
			<path d="M287.119,493.833l-0.673,0.085c-4.429,0.554-7.572,4.595-7.019,9.025c0.512,4.09,3.994,7.082,8.012,7.082
				c0.335,0,0.673-0.022,1.013-0.064l0.742-0.096c4.427-0.572,7.553-4.627,6.979-9.054
				C295.601,496.383,291.537,493.251,287.119,493.833z"/>
			<path d="M259.103,495.812c-0.033,0-0.068,0-0.101,0.001c-1,0.012-2,0.018-3.002,0.018C123.756,495.832,16.168,388.244,16.168,256
				S123.756,16.168,256,16.168S495.832,123.756,495.832,256c0,36.543-8.004,71.624-23.789,104.27
				c-1.945,4.019-0.261,8.854,3.759,10.797c4.016,1.942,8.854,0.261,10.797-3.759C503.453,332.451,512,295.001,512,256
				c0-68.379-26.628-132.667-74.981-181.018C388.667,26.628,324.379,0,256,0S123.333,26.628,74.981,74.982
				C26.628,123.333,0,187.621,0,256s26.628,132.667,74.981,181.018C123.333,485.372,187.621,512,256,512
				c1.067,0,2.134-0.006,3.2-0.019c4.464-0.054,8.039-3.718,7.984-8.182C267.13,499.367,263.523,495.812,259.103,495.812z"/>
			<path d="M430.08,278.636h-13.129c-3.885,0-7.219,2.763-7.943,6.578c-1.414,7.459-3.394,14.867-5.885,22.022
				c-1.468,4.216,0.76,8.825,4.977,10.293c4.215,1.466,8.825-0.76,10.293-4.977c2.018-5.795,3.732-11.74,5.119-17.748h6.569
				c21.397,0,38.804-17.407,38.804-38.804c0-21.397-17.407-38.804-38.804-38.804h-6.565c-4.266-18.541-11.521-36.048-21.63-52.202
				l4.649-4.648c15.129-15.13,15.129-39.748,0-54.879c-15.131-15.128-39.75-15.127-54.879,0l-4.648,4.649
				c-16.153-10.11-33.662-17.364-52.202-21.63V81.92c0-21.397-17.407-38.804-38.804-38.804s-38.804,17.407-38.804,38.804v6.565
				c-18.541,4.266-36.049,11.521-52.202,21.63l-4.649-4.649c-15.13-15.13-39.748-15.128-54.877,0
				c-7.33,7.33-11.365,17.074-11.365,27.44c0,10.365,4.037,20.109,11.365,27.438l4.648,4.649
				c-10.11,16.152-17.364,33.662-21.631,52.202H81.92c-21.397,0-38.804,17.407-38.804,38.804s17.407,38.804,38.804,38.804h6.565
				c4.266,18.541,11.522,36.049,21.631,52.202l-4.648,4.648c-7.33,7.33-11.365,17.075-11.365,27.439
				c0,10.365,4.037,20.11,11.365,27.44c15.129,15.128,39.747,15.128,54.877,0l4.649-4.649c16.153,10.11,33.662,17.364,52.202,21.63
				v6.565c0,21.397,17.407,38.804,38.804,38.804s38.804-17.407,38.804-38.804v-6.569c6.003-1.386,11.95-3.101,17.748-5.119
				c4.217-1.467,6.445-6.076,4.978-10.292c-1.466-4.217-6.075-6.447-10.292-4.978c-7.163,2.493-14.572,4.472-22.025,5.885
				c-3.816,0.724-6.578,4.059-6.578,7.943v13.129c0,12.481-10.155,22.636-22.636,22.636c-12.482,0-22.636-10.155-22.636-22.636
				v-13.129c0-3.885-2.763-7.219-6.577-7.942c-20.996-3.983-40.617-12.112-58.32-24.164c-3.211-2.188-7.52-1.781-10.266,0.966
				l-9.288,9.288c-8.826,8.827-23.187,8.827-32.011,0c-4.276-4.275-6.63-9.959-6.63-16.007c0-6.046,2.354-11.731,6.63-16.007
				l9.288-9.288c2.745-2.745,3.152-7.056,0.966-10.265c-12.051-17.702-20.181-37.323-24.164-58.32
				c-0.724-3.815-4.059-6.577-7.943-6.577H81.92c-12.482,0-22.636-10.155-22.636-22.636c0-12.481,10.154-22.636,22.636-22.636
				h13.128c3.884,0,7.219-2.763,7.943-6.577c3.984-20.996,12.113-40.618,24.164-58.32c2.185-3.21,1.78-7.52-0.966-10.265
				l-9.288-9.289c-4.276-4.275-6.63-9.959-6.63-16.006s2.354-11.732,6.63-16.007c8.826-8.827,23.185-8.827,32.011,0l9.288,9.288
				c2.747,2.746,7.056,3.153,10.266,0.966c17.702-12.053,37.324-20.182,58.319-24.165c3.816-0.723,6.577-4.058,6.577-7.942V81.92
				c0-12.481,10.154-22.636,22.636-22.636c12.481,0,22.636,10.155,22.636,22.636v13.129c0,3.885,2.763,7.219,6.578,7.942
				c20.996,3.983,40.617,12.112,58.318,24.164c3.211,2.188,7.522,1.78,10.266-0.966l9.288-9.288c8.825-8.826,23.186-8.828,32.011,0
				c8.826,8.826,8.826,23.187,0,32.011l-9.288,9.288c-2.745,2.747-3.151,7.057-0.966,10.266
				c12.052,17.702,20.181,37.323,24.164,58.318c0.723,3.816,4.058,6.578,7.942,6.578h13.131c12.481,0,22.636,10.155,22.636,22.636
				C452.716,268.48,442.561,278.636,430.08,278.636z"/>
			<path d="M319.077,487.453l-0.856,0.231c-4.312,1.159-6.867,5.594-5.709,9.906c0.97,3.609,4.236,5.988,7.802,5.988
				c0.695,0,1.401-0.091,2.104-0.279l0.906-0.246c4.308-1.174,6.849-5.617,5.676-9.924
				C327.828,488.82,323.375,486.284,319.077,487.453z"/>
			<path d="M410.254,337.606c-0.003-0.002-0.005-0.004-0.008-0.008c-5.599-5.599-13.043-8.682-20.961-8.682
				c-5.145,0-10.09,1.302-14.459,3.75l-14.808-14.808c27.804-46.557,21.683-107.89-18.368-147.941
				c-47.283-47.28-124.213-47.28-171.493,0c-22.904,22.904-35.518,53.356-35.518,85.747s12.614,62.842,35.518,85.745
				c22.903,22.904,53.355,35.519,85.745,35.519c22.263,0,43.611-5.961,62.22-17.123l14.782,14.782
				c-2.447,4.37-3.75,9.315-3.75,14.46c0,7.916,3.084,15.36,8.675,20.952l93.081,93.32c5.779,5.778,13.369,8.667,20.96,8.667
				s15.181-2.89,20.96-8.667l30.488-30.488c11.556-11.557,11.557-30.362,0.008-41.914L410.254,337.606z M315.169,342.489
				c-0.314,0.183-0.62,0.389-0.912,0.618c-17.129,11.483-37.268,17.652-58.354,17.652c-28.072,0-54.463-10.933-74.313-30.784
				c-19.849-19.849-30.781-46.241-30.781-74.312s10.931-54.463,30.781-74.312c20.488-20.489,47.4-30.733,74.313-30.733
				c26.912,0,53.825,10.244,74.313,30.733c36.117,36.117,40.401,92.199,12.85,133.05c-0.033,0.048-0.067,0.098-0.099,0.147
				c-3.684,5.443-7.933,10.612-12.75,15.429C325.543,334.651,320.504,338.831,315.169,342.489z M331.602,350.416
				c3.487-2.796,6.839-5.8,10.047-9.007c3.221-3.221,6.219-6.576,9.001-10.053l11.959,11.959l-19.056,19.055L331.602,350.416z
				 M491.885,461.397l-30.488,30.488c-5.253,5.255-13.8,5.254-19.046,0.008l-93.081-93.32c-2.545-2.544-3.947-5.928-3.947-9.526
				c0-3.599,1.402-6.984,3.947-9.527l30.488-30.488c2.544-2.544,5.927-3.946,9.526-3.946c3.597,0,6.979,1.4,9.52,3.94l93.081,93.318
				C497.139,447.596,497.139,456.145,491.885,461.397z"/>
			<path d="M196.833,196.594c-32.571,32.572-32.571,85.569,0,118.141c16.286,16.284,37.678,24.427,59.07,24.427
				c21.392,0,42.784-8.143,59.07-24.427c32.571-32.572,32.571-85.569,0-118.141C282.4,164.023,229.404,164.023,196.833,196.594z
				 M303.541,303.3c-13.136,13.134-30.384,19.701-47.638,19.7c-17.25-0.002-34.505-6.568-47.636-19.698
				c-26.266-26.267-26.266-69.008,0-95.274c26.267-26.267,69.009-26.267,95.273,0C329.807,234.293,329.807,277.034,303.541,303.3z"
				/>
			<path d="M360.267,472.044l-0.766,0.37c-4.025,1.933-5.723,6.762-3.791,10.786c1.39,2.897,4.282,4.589,7.294,4.589
				c1.174,0,2.365-0.257,3.492-0.798l0.815-0.392c4.019-1.946,5.7-6.78,3.754-10.799
				C369.122,471.781,364.289,470.098,360.267,472.044z"/>
		</g>
	</g>
</g>
<g>
</g>
<g>
</g>
<g>
</g>
<g>
</g>
<g>
</g>
<g>
</g>
<g>
</g>
<g>
</g>
<g>
</g>
<g>
</g>
<g>
</g>
<g>
</g>
<g>
</g>
<g>
</g>
<g>
</g>
</svg>
